<svg xmlns="http://www.w3.org/2000/svg" viewBox="0 0 1315.05 308"><title>SoLoMo</title><path d="M1219.57,89.09A158.28,158.28,0,0,0,1120,13l-5,19.27a138.48,138.48,0,0,1,87.32,67Z" transform="translate(-13.82 -13)" style="fill:#448599;fill-rule:evenodd"/><path d="M1185.11,109.51a118.73,118.73,0,0,0-75.07-58l-5,19.27a98.94,98.94,0,0,1,62.81,48.9Z" transform="translate(-13.82 -13)" style="fill:#448599;fill-rule:evenodd"/><path d="M125.39,207q-7.55,6-22.92,6.05-20.23,0-30.19-7.75t-10-25.88H14.14l-.3.88q-.75,34.29,25.79,52.52T102.47,251q36.16,0,58.06-15.63t21.91-43.28q0-27.22-18.39-42.78t-54.71-26.22q-23.57-8.67-32.15-14.42c-5.72-3.84-8.56-9-8.56-15.34q0-9.87,8.5-16.6T100.56,70q15.24,0,23.88,7.81t8.64,20.25h48l.29-.87q.74-28.71-21.9-47T101.44,32q-35.75,0-59,16.53T19.27,91.8q0,27.48,19.46,42t59.93,27.26q19.31,6.79,26.79,12.85t7.49,17.14A19.37,19.37,0,0,1,125.39,207Z" transform="translate(-13.82 -13)" style="fill:#d05454;fill-rule:evenodd"/><polygon points="430.54 22 380.88 22 380.88 235 522.38 235 522.38 197 430.54 197 430.54 22" style="fill:#1ba39c;fill-rule:evenodd"/><polygon points="728.88 22 728.88 235 778.54 235 778.54 182.22 773.85 86.3 774.73 86.16 825.56 235 858.96 235 910.37 84.84 911.26 84.98 906.57 182.22 906.57 235 956.23 235 956.23 22 890.9 22 842.56 170.98 841.68 170.98 793.91 22 728.88 22" style="fill:#448599;fill-rule:evenodd"/><path d="M997.5,168.5a82,82,0,1,0,82-82A82,82,0,0,0,997.5,168.5Zm42,0a40,40,0,1,1,40,40A40,40,0,0,1,1039.5,168.5Z" transform="translate(-13.82 -13)" style="fill:#448599;fill-rule:evenodd"/><path d="M203.5,168.5A81.67,81.67,0,0,0,221.72,220a100.3,100.3,0,0,1-21.84,29.67,101.44,101.44,0,0,0,50-7.33A82,82,0,1,0,203.5,168.5Zm27,0a15,15,0,1,1,15,15A15,15,0,0,1,230.5,168.5Zm40,0a15,15,0,1,1,15,15A15,15,0,0,1,270.5,168.5Zm40,0a15,15,0,1,1,15,15A15,15,0,0,1,310.5,168.5Z" transform="translate(-13.82 -13)" style="fill:#d05454;fill-rule:evenodd"/><path d="M550.5,168.5a81.61,81.61,0,0,0,14.71,46.87l57.54,98.88h.06a10.35,10.35,0,0,0,19.67-.82l57.85-98.85A82,82,0,1,0,550.5,168.5Zm42,0a40,40,0,1,1,40,40A40,40,0,0,1,592.5,168.5Z" transform="translate(-13.82 -13)" style="fill:#1ba39c;fill-rule:evenodd"/><rect x="1203.03" y="155.52" width="24.67" height="78.99" style="fill:#a4dad7"/><path d="M1302.38,189q2.47,3.35,2.47,9.57v2h-21.18l-.22-.39a22.25,22.25,0,0,1,3.24-10.56,9,9,0,0,1,8-4C1298.16,185.66,1300.73,186.78,1302.38,189Zm11.6,57.52a45.23,45.23,0,0,0,13.36-6.21l-5.83-14.84a80.38,80.38,0,0,1-10.6,3.8,46.15,46.15,0,0,1-11.16,1.08q-6.92,0-11.06-4.06a17,17,0,0,1-4.95-10.39l.15-.45h45V202.61q0-16.4-9.09-26t-25.1-9.59q-17.55-.07-27,11.35t-9.42,29.45v2.78q0,16.49,10.37,27.44T1296.42,249A60.75,60.75,0,0,0,1314,246.53Z" transform="translate(-13.82 -13)" style="fill:#a4dad7;fill-rule:evenodd"/><circle cx="1171.48" cy="222.21" r="12.3" style="fill:#a4dad7"/><circle cx="1215.44" cy="132.8" r="12.3" style="fill:#a4dad7"/></svg>